<svg width="141" height="60" viewBox="0 0 141 60" fill="none" xmlns="http://www.w3.org/2000/svg">
<path d="M0.896 26.04C0.896 24.2053 1.23733 22.5947 1.92 21.208C2.624 19.8213 3.57333 18.7547 4.768 18.008C5.96267 17.2613 7.296 16.888 8.768 16.888C10.0267 16.888 11.1253 17.144 12.064 17.656C13.024 18.168 13.76 18.84 14.272 19.672V17.144H19.744V35H14.272V32.472C13.7387 33.304 12.992 33.976 12.032 34.488C11.0933 35 9.99467 35.256 8.736 35.256C7.28533 35.256 5.96267 34.8827 4.768 34.136C3.57333 33.368 2.624 32.2907 1.92 30.904C1.23733 29.496 0.896 27.8747 0.896 26.04ZM14.272 26.072C14.272 24.7067 13.888 23.6293 13.12 22.84C12.3733 22.0507 11.456 21.656 10.368 21.656C9.28 21.656 8.352 22.0507 7.584 22.84C6.83733 23.608 6.464 24.6747 6.464 26.04C6.464 27.4053 6.83733 28.4933 7.584 29.304C8.352 30.0933 9.28 30.488 10.368 30.488C11.456 30.488 12.3733 30.0933 13.12 29.304C13.888 28.5147 14.272 27.4373 14.272 26.072ZM29.1748 11.32V35H23.7028V11.32H29.1748ZM50.7723 17.144V35H45.3003V32.568C44.7456 33.3573 43.9883 33.9973 43.0283 34.488C42.0896 34.9573 41.0443 35.192 39.8923 35.192C38.5269 35.192 37.3216 34.8933 36.2763 34.296C35.2309 33.6773 34.4203 32.792 33.8443 31.64C33.2683 30.488 32.9803 29.1333 32.9803 27.576V17.144H38.4203V26.84C38.4203 28.0347 38.7296 28.9627 39.3483 29.624C39.9669 30.2853 40.7989 30.616 41.8443 30.616C42.9109 30.616 43.7536 30.2853 44.3723 29.624C44.9909 28.9627 45.3003 28.0347 45.3003 26.84V17.144H50.7723ZM77.4868 16.952C79.7054 16.952 81.4654 17.624 82.7668 18.968C84.0894 20.312 84.7508 22.1787 84.7508 24.568V35H79.3108V25.304C79.3108 24.152 79.0014 23.2667 78.3828 22.648C77.7854 22.008 76.9534 21.688 75.8868 21.688C74.8201 21.688 73.9774 22.008 73.3588 22.648C72.7614 23.2667 72.4628 24.152 72.4628 25.304V35H67.0228V25.304C67.0228 24.152 66.7134 23.2667 66.0948 22.648C65.4974 22.008 64.6654 21.688 63.5988 21.688C62.5321 21.688 61.6894 22.008 61.0708 22.648C60.4734 23.2667 60.1748 24.152 60.1748 25.304V35H54.7028V17.144H60.1748V19.384C60.7294 18.6373 61.4548 18.0507 62.3508 17.624C63.2468 17.176 64.2601 16.952 65.3908 16.952C66.7348 16.952 67.9294 17.24 68.9748 17.816C70.0414 18.392 70.8734 19.2133 71.4708 20.28C72.0894 19.2987 72.9321 18.4987 73.9988 17.88C75.0654 17.2613 76.2281 16.952 77.4868 16.952ZM99.4578 16.952C101.548 16.952 103.212 17.6347 104.45 19C105.708 20.344 106.338 22.2 106.338 24.568V35H100.898V25.304C100.898 24.1093 100.588 23.1813 99.9698 22.52C99.3511 21.8587 98.5191 21.528 97.4738 21.528C96.4284 21.528 95.5964 21.8587 94.9778 22.52C94.3591 23.1813 94.0498 24.1093 94.0498 25.304V35H88.5778V17.144H94.0498V19.512C94.6044 18.7227 95.3511 18.104 96.2898 17.656C97.2284 17.1867 98.2844 16.952 99.4578 16.952ZM112.892 15.288C111.932 15.288 111.143 15.0107 110.524 14.456C109.927 13.88 109.628 13.176 109.628 12.344C109.628 11.4907 109.927 10.7867 110.524 10.232C111.143 9.656 111.932 9.368 112.892 9.368C113.831 9.368 114.599 9.656 115.196 10.232C115.815 10.7867 116.124 11.4907 116.124 12.344C116.124 13.176 115.815 13.88 115.196 14.456C114.599 15.0107 113.831 15.288 112.892 15.288ZM115.612 17.144V35H110.14V17.144H115.612Z" fill="white"/>
<path d="M77.4463 39.5234C77.6579 39.556 77.8369 39.5804 77.9834 39.5967C78.1299 39.613 78.2601 39.6292 78.374 39.6455C78.5042 39.6455 78.6344 39.6455 78.7646 39.6455C78.8949 39.6292 79.0576 39.6048 79.2529 39.5723C79.611 39.5234 79.9284 39.4827 80.2051 39.4502C80.498 39.4014 80.8154 39.3607 81.1572 39.3281C81.2549 39.3118 81.3525 39.3118 81.4502 39.3281C81.5641 39.3444 81.6699 39.3525 81.7676 39.3525C81.9792 39.3525 82.1826 39.3444 82.3779 39.3281C82.5895 39.3118 82.7848 39.2956 82.9639 39.2793C83.029 39.263 83.0859 39.2467 83.1348 39.2305C83.1836 39.2142 83.2324 39.2142 83.2812 39.2305C83.4277 39.2305 83.5742 39.2305 83.7207 39.2305C83.8672 39.2142 83.9974 39.263 84.1113 39.377C84.1602 39.5397 84.1764 39.6292 84.1602 39.6455C84.1439 39.6618 84.1276 39.6862 84.1113 39.7188C84.0951 39.9303 84.0625 40.0361 84.0137 40.0361C83.9811 40.0361 83.9648 40.0524 83.9648 40.085C83.8346 40.1175 83.7207 40.1501 83.623 40.1826C83.5417 40.1989 83.4766 40.2477 83.4277 40.3291C83.151 40.3942 82.8906 40.4105 82.6465 40.3779C82.4186 40.3291 82.1826 40.3617 81.9385 40.4756C81.8245 40.5244 81.7025 40.5895 81.5723 40.6709C81.4583 40.736 81.3118 40.736 81.1328 40.6709C80.9701 40.6709 80.7829 40.679 80.5713 40.6953C80.3597 40.7116 80.1562 40.7279 79.9609 40.7441C79.5866 40.7767 79.2611 40.8092 78.9844 40.8418C78.724 40.8581 78.4717 40.8743 78.2275 40.8906C77.9834 40.8906 77.7311 40.8988 77.4707 40.915C77.2266 40.9313 76.9255 40.9395 76.5674 40.9395C76.4372 41.0534 76.3477 41.1917 76.2988 41.3545C76.2663 41.5173 76.1849 41.6475 76.0547 41.7451C75.9245 42.0544 75.8187 42.266 75.7373 42.3799C75.6559 42.4775 75.599 42.5996 75.5664 42.7461C75.3385 43.0391 75.127 43.3483 74.9316 43.6738C74.7526 43.9831 74.541 44.276 74.2969 44.5527C74.2643 44.7318 74.1992 44.8945 74.1016 45.041C74.0202 45.1712 73.9632 45.3503 73.9307 45.5781C73.7516 45.8223 73.6214 46.0908 73.54 46.3838C73.4587 46.6768 73.3529 46.986 73.2227 47.3115C73.1901 47.4417 73.1494 47.5719 73.1006 47.7021C73.068 47.8161 73.0273 47.9382 72.9785 48.0684C72.9134 48.2311 72.832 48.3857 72.7344 48.5322C72.653 48.6624 72.5716 48.8089 72.4902 48.9717C72.4577 49.0042 72.4414 49.0531 72.4414 49.1182C72.4414 49.167 72.4333 49.2077 72.417 49.2402C72.3682 49.3542 72.3193 49.46 72.2705 49.5576C72.2217 49.639 72.181 49.7204 72.1484 49.8018C72.1159 49.8831 72.0915 49.9727 72.0752 50.0703C72.0752 50.1517 72.0589 50.2331 72.0264 50.3145C72.0101 50.3633 71.9938 50.4121 71.9775 50.4609C71.9613 50.4935 71.945 50.5342 71.9287 50.583C71.8799 50.8109 71.8799 50.9655 71.9287 51.0469C71.9775 51.1283 72.0182 51.2096 72.0508 51.291C72.0833 51.3887 72.1159 51.4782 72.1484 51.5596C72.181 51.6247 72.2054 51.6979 72.2217 51.7793C72.3031 51.8118 72.3763 51.8444 72.4414 51.877C72.5228 51.9095 72.6042 51.9258 72.6855 51.9258C72.7832 51.9421 72.889 51.9014 73.0029 51.8037C73.1169 51.6898 73.2145 51.6247 73.2959 51.6084C73.4098 51.5758 73.5156 51.5596 73.6133 51.5596C73.7272 51.5596 73.8249 51.5352 73.9062 51.4863C74.0039 51.4049 74.0853 51.3236 74.1504 51.2422C74.2155 51.1608 74.305 51.1038 74.4189 51.0713C74.6794 51.0062 74.8177 50.9574 74.834 50.9248C74.8503 50.876 74.9072 50.8109 75.0049 50.7295C75.1188 50.6481 75.2165 50.5749 75.2979 50.5098C75.3955 50.4284 75.5094 50.347 75.6396 50.2656C75.8024 50.1842 75.8919 50.1354 75.9082 50.1191C75.9408 50.1029 76.014 50.0459 76.1279 49.9482C76.2907 49.8669 76.429 49.7773 76.543 49.6797C76.6569 49.582 76.7871 49.4925 76.9336 49.4111C77.0964 49.346 77.194 49.3053 77.2266 49.2891C77.2591 49.2565 77.2754 49.2321 77.2754 49.2158C77.2917 49.1995 77.3079 49.1751 77.3242 49.1426C77.3568 49.11 77.4382 49.0531 77.5684 48.9717C77.6335 48.8415 77.7067 48.7357 77.7881 48.6543C77.8695 48.5729 77.9671 48.4671 78.0811 48.3369C78.1787 48.223 78.2764 48.1253 78.374 48.0439C78.488 47.9626 78.5856 47.8812 78.667 47.7998C78.7158 47.7673 78.7565 47.7347 78.7891 47.7021C78.8216 47.6533 78.8786 47.6208 78.96 47.6045C79.0576 47.5231 79.1309 47.458 79.1797 47.4092C79.2448 47.3441 79.3424 47.2546 79.4727 47.1406C79.5052 47.1081 79.5459 47.0674 79.5947 47.0186C79.6436 46.9697 79.6842 46.9372 79.7168 46.9209C79.7819 46.9209 79.8307 46.9453 79.8633 46.9941C79.9121 47.043 79.9691 47.0674 80.0342 47.0674C80.0179 47.279 80.0098 47.4173 80.0098 47.4824C80.0098 47.5312 79.9935 47.5882 79.9609 47.6533C79.8633 47.7998 79.7493 47.8812 79.6191 47.8975C79.5052 47.9137 79.4157 48.0033 79.3506 48.166C79.3018 48.1335 79.2367 48.1253 79.1553 48.1416C79.0902 48.1579 79.0413 48.1823 79.0088 48.2148C79.0413 48.2799 79.0576 48.3369 79.0576 48.3857C79.0576 48.4346 79.0658 48.4915 79.082 48.5566C78.7891 48.8496 78.5938 49.0856 78.4961 49.2646C78.3008 49.4762 78.195 49.5983 78.1787 49.6309C78.1624 49.6471 78.1543 49.6553 78.1543 49.6553C78.1543 49.6553 78.1462 49.6634 78.1299 49.6797C78.1136 49.696 78.0566 49.7529 77.959 49.8506C77.7311 50.0296 77.5602 50.2005 77.4463 50.3633C77.3324 50.526 77.1615 50.6725 76.9336 50.8027C76.7546 50.9329 76.6325 51.0306 76.5674 51.0957C76.5023 51.1608 76.4046 51.2503 76.2744 51.3643C76.2093 51.4294 76.1442 51.5026 76.0791 51.584C76.0303 51.6491 75.9652 51.7142 75.8838 51.7793C75.7699 51.8607 75.6559 51.9339 75.542 51.999C75.4443 52.0641 75.3548 52.1455 75.2734 52.2432C75.0293 52.3571 74.8503 52.4873 74.7363 52.6338C74.6387 52.7803 74.484 52.9186 74.2725 53.0488C74.126 53.1465 73.9225 53.2686 73.6621 53.415C73.418 53.5615 73.2064 53.6673 73.0273 53.7324C72.9785 53.7487 72.9297 53.765 72.8809 53.7812C72.8483 53.7975 72.8076 53.8138 72.7588 53.8301C72.6286 53.7487 72.4984 53.6673 72.3682 53.5859C72.2542 53.5046 72.1566 53.3906 72.0752 53.2441C71.9287 53.1302 71.8066 53.0488 71.709 53C71.6276 52.9512 71.5462 52.8861 71.4648 52.8047C71.3021 52.528 71.1149 52.2513 70.9033 51.9746C70.708 51.6979 70.5534 51.3887 70.4395 51.0469C70.4069 50.9818 70.3825 50.9167 70.3662 50.8516C70.3662 50.7702 70.3581 50.6888 70.3418 50.6074C70.3092 50.4772 70.2767 50.3633 70.2441 50.2656C70.2116 50.168 70.2035 50.0459 70.2197 49.8994C70.2197 49.8018 70.236 49.696 70.2686 49.582C70.3011 49.4681 70.3337 49.346 70.3662 49.2158C70.4313 49.0042 70.5046 48.8008 70.5859 48.6055C70.6836 48.4102 70.7568 48.1986 70.8057 47.9707C70.8545 47.7917 70.9033 47.6289 70.9521 47.4824C71.001 47.3359 71.0579 47.1732 71.123 46.9941C71.1556 46.9128 71.1719 46.8395 71.1719 46.7744C71.1882 46.693 71.237 46.6361 71.3184 46.6035C71.3835 46.278 71.4893 45.9688 71.6357 45.6758C71.7822 45.3665 71.9287 45.0736 72.0752 44.7969C72.2542 44.4551 72.417 44.1051 72.5635 43.7471C72.7262 43.389 72.8971 43.0391 73.0762 42.6973C73.0924 42.502 73.1576 42.3392 73.2715 42.209C73.2878 42.0299 73.3529 41.859 73.4668 41.6963C73.5807 41.5173 73.6621 41.3382 73.7109 41.1592C73.5319 41.1104 73.3285 41.1104 73.1006 41.1592C72.889 41.1917 72.7018 41.2243 72.5391 41.2568C72.2461 41.2731 71.9368 41.2731 71.6113 41.2568C71.4974 41.2406 71.3835 41.2243 71.2695 41.208C71.1719 41.1755 71.0742 41.1592 70.9766 41.1592C70.8301 41.1755 70.7161 41.1673 70.6348 41.1348C70.5697 41.0859 70.4964 41.0778 70.415 41.1104C70.2035 40.9313 70.0488 40.8092 69.9512 40.7441C69.8535 40.679 69.764 40.6221 69.6826 40.5732C69.585 40.5081 69.5036 40.443 69.4385 40.3779C69.3571 40.2965 69.292 40.1826 69.2432 40.0361C69.2432 39.9873 69.2676 39.9466 69.3164 39.9141C69.3652 39.8815 69.4059 39.849 69.4385 39.8164C69.5687 39.7839 69.7152 39.7757 69.8779 39.792C70.0407 39.792 70.1709 39.7594 70.2686 39.6943C70.529 39.7269 70.765 39.7106 70.9766 39.6455C71.2044 39.5804 71.4404 39.556 71.6846 39.5723C71.7334 39.5723 71.7822 39.5804 71.8311 39.5967C71.8799 39.613 71.9287 39.6211 71.9775 39.6211C72.0589 39.6374 72.124 39.6374 72.1729 39.6211C72.238 39.6048 72.3112 39.5885 72.3926 39.5723C72.4902 39.556 72.596 39.556 72.71 39.5723C72.8239 39.5885 72.9378 39.5885 73.0518 39.5723C73.2633 39.556 73.5156 39.5804 73.8086 39.6455C74.1178 39.6943 74.3864 39.6781 74.6143 39.5967C74.6956 39.3688 74.7852 39.141 74.8828 38.9131C74.9967 38.6689 75.0863 38.4329 75.1514 38.2051C75.2165 38.1074 75.2816 38.0016 75.3467 37.8877C75.4118 37.7575 75.4606 37.6354 75.4932 37.5215C75.5908 37.3587 75.6641 37.2285 75.7129 37.1309C75.778 37.0332 75.8512 36.9355 75.9326 36.8379C76.0465 36.61 76.1279 36.3903 76.1768 36.1787C76.2419 35.9508 76.3232 35.7067 76.4209 35.4463C76.6325 35.2184 76.8441 34.9417 77.0557 34.6162C77.1696 34.6325 77.2591 34.5999 77.3242 34.5186C77.4056 34.4372 77.5195 34.4453 77.666 34.543C77.666 34.5918 77.6823 34.6406 77.7148 34.6895C77.7637 34.722 77.7718 34.779 77.7393 34.8604C77.8206 34.9417 77.8857 35.015 77.9346 35.0801C77.9834 35.1452 78.0241 35.2184 78.0566 35.2998C78.0892 35.43 78.0729 35.5846 78.0078 35.7637C77.959 35.9264 77.9753 36.0811 78.0566 36.2275C78.0892 36.3089 78.0973 36.3903 78.0811 36.4717C78.0648 36.5368 78.0729 36.6019 78.1055 36.667C78.138 36.7484 78.1787 36.8298 78.2275 36.9111C78.2926 36.9925 78.3252 37.0983 78.3252 37.2285C78.3252 37.2773 78.3089 37.3424 78.2764 37.4238C78.2601 37.4889 78.2357 37.5622 78.2031 37.6436C78.138 37.8877 78.0892 38.0586 78.0566 38.1562C78.0241 38.2539 77.9915 38.3597 77.959 38.4736C77.8451 38.6038 77.7881 38.6934 77.7881 38.7422C77.7881 38.7747 77.7799 38.8073 77.7637 38.8398C77.7148 38.9375 77.6579 39.0596 77.5928 39.2061C77.5439 39.3363 77.4951 39.4421 77.4463 39.5234ZM84.5264 51.0713C84.5915 50.9899 84.6403 50.9329 84.6729 50.9004C84.7054 50.8516 84.7542 50.8109 84.8193 50.7783C84.9333 50.5342 85.0553 50.3389 85.1855 50.1924C85.332 50.0296 85.4785 49.8831 85.625 49.7529C85.7715 49.6064 85.9261 49.4762 86.0889 49.3623C86.2679 49.2321 86.4632 49.0775 86.6748 48.8984C86.7562 48.8984 86.8213 48.874 86.8701 48.8252C86.9352 48.7601 87.0085 48.7113 87.0898 48.6787C87.2038 48.5811 87.2933 48.5078 87.3584 48.459C87.4398 48.4102 87.5049 48.3451 87.5537 48.2637C87.749 48.166 87.9199 48.0439 88.0664 47.8975C88.2292 47.751 88.4001 47.6126 88.5791 47.4824C88.7256 47.4499 88.8639 47.4661 88.9941 47.5312C89.0592 47.6615 89.0837 47.7998 89.0674 47.9463C89.0511 48.0928 88.9697 48.1742 88.8232 48.1904C88.7744 48.2393 88.7174 48.2881 88.6523 48.3369C88.6035 48.3857 88.5384 48.4183 88.457 48.4346C88.3594 48.4508 88.2861 48.4753 88.2373 48.5078C88.2048 48.5241 88.1722 48.5648 88.1396 48.6299C88.1234 48.7926 88.099 48.8903 88.0664 48.9229C88.0501 48.9391 88.0339 48.9635 88.0176 48.9961C87.9199 49.1589 87.8141 49.3053 87.7002 49.4355C87.6025 49.5495 87.5049 49.6634 87.4072 49.7773C87.3096 49.875 87.2119 49.9889 87.1143 50.1191C87.0166 50.2331 86.9108 50.3796 86.7969 50.5586C86.6992 50.6237 86.626 50.7132 86.5771 50.8271C86.2842 50.9899 86.0645 51.1201 85.918 51.2178C85.7878 51.2992 85.6657 51.4049 85.5518 51.5352C85.4541 51.6003 85.4053 51.6491 85.4053 51.6816C85.4053 51.7142 85.389 51.7467 85.3564 51.7793C85.1937 51.9095 85.096 52.0153 85.0635 52.0967C85.0472 52.1618 85.0146 52.2106 84.9658 52.2432C84.8031 52.3571 84.681 52.4629 84.5996 52.5605C84.5182 52.6419 84.4124 52.707 84.2822 52.7559C84.1846 52.8372 84.0462 52.9349 83.8672 53.0488C83.6882 53.1628 83.4928 53.2686 83.2812 53.3662C83.0697 53.4639 82.8581 53.529 82.6465 53.5615C82.4512 53.6104 82.2803 53.6022 82.1338 53.5371C82.0687 53.4883 82.0117 53.4395 81.9629 53.3906C81.9141 53.3581 81.8571 53.3255 81.792 53.293C81.6781 53.1628 81.556 53.057 81.4258 52.9756C81.3118 52.8779 81.2061 52.7559 81.1084 52.6094C80.9945 52.4466 80.9131 52.2757 80.8643 52.0967C80.8317 51.9014 80.7747 51.7142 80.6934 51.5352C80.6771 51.3398 80.6771 51.1527 80.6934 50.9736C80.7096 50.7783 80.7422 50.6156 80.791 50.4854C80.9701 49.932 81.1816 49.4518 81.4258 49.0449C81.6862 48.638 81.8652 48.1742 81.9629 47.6533C81.7839 47.4743 81.6781 47.3115 81.6455 47.165C81.6292 47.0023 81.5885 46.7826 81.5234 46.5059C81.1003 46.7826 80.7096 47.1325 80.3516 47.5557C79.9935 47.9788 79.6761 48.4102 79.3994 48.8496C79.2855 49.0449 79.1878 49.224 79.1064 49.3867C79.0251 49.5495 78.9274 49.696 78.8135 49.8262C78.7321 49.9076 78.6914 49.9645 78.6914 49.9971C78.6914 50.0133 78.6751 50.0378 78.6426 50.0703C78.5124 50.2331 78.431 50.347 78.3984 50.4121C78.3659 50.4772 78.3333 50.5342 78.3008 50.583C78.2682 50.6318 78.2275 50.6807 78.1787 50.7295C78.1299 50.7783 78.0892 50.8271 78.0566 50.876C77.8288 51.2015 77.6172 51.5107 77.4219 51.8037C77.2428 52.0804 77.0557 52.3652 76.8604 52.6582C76.779 52.7884 76.7057 52.9268 76.6406 53.0732C76.5755 53.2197 76.4941 53.3499 76.3965 53.4639C76.2337 53.4801 76.1442 53.4557 76.1279 53.3906C76.0954 53.3255 76.0954 53.2686 76.1279 53.2197C76.0303 53.1546 75.957 53.057 75.9082 52.9268C75.8431 52.7803 75.8105 52.6257 75.8105 52.4629C75.7943 52.3001 75.7943 52.1374 75.8105 51.9746C75.8268 51.8118 75.8594 51.6735 75.9082 51.5596C75.8594 51.4131 75.8431 51.3317 75.8594 51.3154C75.8757 51.2992 75.8838 51.2747 75.8838 51.2422C76.0954 50.9492 76.3151 50.6562 76.543 50.3633C76.7546 50.0703 76.9824 49.7936 77.2266 49.5332C77.3079 49.4193 77.3812 49.3053 77.4463 49.1914C77.5277 49.0775 77.6172 48.9717 77.7148 48.874C77.8613 48.6136 78.0241 48.3695 78.2031 48.1416C78.3984 47.9137 78.5612 47.6615 78.6914 47.3848C78.7728 47.3034 78.8298 47.2139 78.8623 47.1162C78.9111 47.0186 78.9844 46.9372 79.082 46.8721C79.196 46.6768 79.2855 46.4896 79.3506 46.3105C79.4157 46.1315 79.5052 45.9769 79.6191 45.8467C79.6517 45.7327 79.6924 45.6432 79.7412 45.5781C79.79 45.513 79.8551 45.4398 79.9365 45.3584C79.9528 45.277 79.9935 45.2119 80.0586 45.1631C80.14 45.098 80.2051 45.0247 80.2539 44.9434C80.2865 44.8294 80.3271 44.7562 80.376 44.7236C80.4248 44.6911 80.4492 44.6341 80.4492 44.5527C80.5306 44.4714 80.612 44.39 80.6934 44.3086C80.7747 44.2109 80.848 44.097 80.9131 43.9668C81.141 43.8366 81.2956 43.7715 81.377 43.7715C81.4746 43.7715 81.5479 43.7308 81.5967 43.6494C81.7269 43.6494 81.8815 43.6494 82.0605 43.6494C82.2396 43.6331 82.3372 43.6901 82.3535 43.8203C82.3698 43.8529 82.3698 43.8936 82.3535 43.9424C82.3372 43.9912 82.321 44.04 82.3047 44.0889C82.321 44.2354 82.321 44.3167 82.3047 44.333C82.2884 44.333 82.2803 44.3411 82.2803 44.3574C82.264 44.4062 82.2559 44.4632 82.2559 44.5283C82.2721 44.5934 82.2803 44.6667 82.2803 44.748C82.264 44.8783 82.2477 44.984 82.2314 45.0654C82.2152 45.1305 82.2477 45.2201 82.3291 45.334C82.3617 45.3828 82.4105 45.4316 82.4756 45.4805C82.5407 45.513 82.5977 45.5618 82.6465 45.627C82.6953 45.6758 82.7197 45.7246 82.7197 45.7734C82.736 45.8223 82.7686 45.8711 82.8174 45.9199C82.8499 45.9688 82.8988 46.0094 82.9639 46.042C83.029 46.0745 83.0778 46.1315 83.1104 46.2129C83.1917 46.278 83.2161 46.3187 83.1836 46.335C83.1673 46.3512 83.208 46.3838 83.3057 46.4326C83.501 46.6768 83.6393 46.929 83.7207 47.1895C83.8184 47.3848 83.9079 47.5475 83.9893 47.6777C84.0706 47.8079 84.0706 47.9382 83.9893 48.0684C83.9567 48.1009 83.9242 48.1416 83.8916 48.1904C83.8753 48.2393 83.8509 48.2962 83.8184 48.3613C83.7533 48.4264 83.6882 48.5078 83.623 48.6055C83.5905 48.6706 83.5661 48.7357 83.5498 48.8008C83.5335 48.8496 83.5091 48.8984 83.4766 48.9473C83.3301 49.1751 83.1755 49.3867 83.0127 49.582C82.8662 49.7773 82.736 49.9808 82.6221 50.1924C82.6383 50.6644 82.7279 51.0062 82.8906 51.2178C83.0859 51.4456 83.208 51.5596 83.2568 51.5596C83.3545 51.5758 83.4684 51.5433 83.5986 51.4619C83.7288 51.3805 83.8346 51.3154 83.916 51.2666C83.9811 51.234 84.0381 51.2015 84.0869 51.1689C84.1357 51.1364 84.1927 51.112 84.2578 51.0957C84.4368 51.0306 84.5182 51.0143 84.502 51.0469C84.4857 51.0632 84.4938 51.0713 84.5264 51.0713ZM94.6094 46.4082C94.6257 46.457 94.6094 46.5547 94.5605 46.7012C94.4792 46.7988 94.4303 46.9046 94.4141 47.0186C94.3815 47.0837 94.349 47.1406 94.3164 47.1895C94.3001 47.2383 94.2839 47.3034 94.2676 47.3848C94.235 47.4824 94.2188 47.5964 94.2188 47.7266C94.235 47.8568 94.235 47.9788 94.2188 48.0928C94.1862 48.2718 94.1618 48.4508 94.1455 48.6299C94.1292 48.7926 94.113 48.9635 94.0967 49.1426C94.0967 49.3216 94.0804 49.5251 94.0479 49.7529C94.0153 49.9808 93.9827 50.1842 93.9502 50.3633C94.0153 50.4772 94.056 50.5993 94.0723 50.7295C94.0885 50.8597 94.1455 50.9655 94.2432 51.0469C94.5687 50.998 94.8291 50.9248 95.0244 50.8271C95.2197 50.7132 95.4069 50.5586 95.5859 50.3633C95.7324 50.2982 95.8301 50.2412 95.8789 50.1924C95.944 50.1436 96.0417 50.0785 96.1719 49.9971C96.2044 49.9645 96.237 49.932 96.2695 49.8994C96.3021 49.8669 96.3346 49.8343 96.3672 49.8018C96.5462 49.7041 96.652 49.639 96.6846 49.6064C96.7334 49.5739 96.7904 49.5413 96.8555 49.5088C97.1322 49.3298 97.3438 49.1426 97.4902 48.9473C97.6367 48.8333 97.7344 48.7357 97.7832 48.6543C97.8483 48.5566 97.9785 48.4671 98.1738 48.3857C98.2878 48.2555 98.4017 48.1497 98.5156 48.0684C98.6458 47.9707 98.7679 47.8568 98.8818 47.7266C98.9632 47.7266 99.0283 47.7428 99.0771 47.7754C99.126 47.8079 99.1829 47.8405 99.248 47.873C99.2969 48.0033 99.305 48.1416 99.2725 48.2881C99.2399 48.4183 99.1829 48.5404 99.1016 48.6543C99.0202 48.7682 98.9795 48.8333 98.9795 48.8496C98.9795 48.8659 98.9714 48.8822 98.9551 48.8984C98.9062 48.9635 98.8411 49.0286 98.7598 49.0938C98.6947 49.1426 98.6377 49.1995 98.5889 49.2646C98.5075 49.4111 98.4424 49.4844 98.3936 49.4844C98.3447 49.4844 98.304 49.5007 98.2715 49.5332C98.125 49.6146 98.0192 49.6797 97.9541 49.7285C97.9053 49.7773 97.8158 49.8424 97.6855 49.9238C97.5065 50.0215 97.4007 50.0866 97.3682 50.1191C97.3356 50.1517 97.3031 50.1761 97.2705 50.1924C97.0589 50.4202 96.8636 50.6074 96.6846 50.7539C96.5218 50.8841 96.3428 51.0632 96.1475 51.291C96.0824 51.3398 96.0173 51.3887 95.9521 51.4375C95.887 51.4863 95.8301 51.5514 95.7812 51.6328C95.6348 51.7305 95.5127 51.8281 95.415 51.9258C95.3337 52.0234 95.236 52.1374 95.1221 52.2676C95.0244 52.3164 94.9186 52.3896 94.8047 52.4873C94.6908 52.5687 94.5687 52.6419 94.4385 52.707C94.3734 52.7396 94.3001 52.7803 94.2188 52.8291C94.1536 52.8617 94.0804 52.8779 93.999 52.8779C93.8037 52.9105 93.6247 52.8942 93.4619 52.8291C93.2992 52.764 93.1445 52.7152 92.998 52.6826C92.9329 52.585 92.8516 52.5036 92.7539 52.4385C92.6074 52.2594 92.5016 52.0479 92.4365 51.8037C92.3714 51.5596 92.3063 51.2992 92.2412 51.0225C92.111 51.1038 91.9889 51.2096 91.875 51.3398C91.7611 51.4701 91.6146 51.5758 91.4355 51.6572C91.11 51.9665 90.7601 52.2676 90.3857 52.5605C90.0277 52.8372 89.6615 53.1302 89.2871 53.4395C89.2383 53.4883 89.1895 53.529 89.1406 53.5615C89.0918 53.5941 89.0511 53.6022 89.0186 53.5859C88.9372 53.6836 88.8232 53.7406 88.6768 53.7568C88.5465 53.7894 88.4001 53.7894 88.2373 53.7568C88.0745 53.6755 87.9281 53.6185 87.7979 53.5859C87.6676 53.5534 87.5374 53.5046 87.4072 53.4395C87.1305 53.3906 86.9027 53.2686 86.7236 53.0732C86.5283 52.8779 86.3656 52.6501 86.2354 52.3896C86.1865 52.2594 86.154 52.1374 86.1377 52.0234C86.1051 51.9095 86.0726 51.7793 86.04 51.6328C86.0238 51.5026 85.9993 51.3968 85.9668 51.3154C85.9342 51.2178 85.9342 51.1283 85.9668 51.0469C85.9342 50.998 85.9261 50.9492 85.9424 50.9004C85.9587 50.8353 85.9668 50.7702 85.9668 50.7051C85.9505 50.4772 85.9749 50.2331 86.04 49.9727C86.0889 49.7122 86.1621 49.4762 86.2598 49.2646C86.2923 49.1995 86.3574 49.1182 86.4551 49.0205C86.4876 48.9717 86.512 48.9229 86.5283 48.874C86.5446 48.8252 86.569 48.7845 86.6016 48.752C86.6341 48.7031 86.6829 48.6543 86.748 48.6055C86.8132 48.5566 86.8701 48.5078 86.9189 48.459C87.0003 48.3451 87.0898 48.2474 87.1875 48.166C87.3014 48.0684 87.4072 47.9707 87.5049 47.873C87.5537 47.8242 87.5944 47.7673 87.627 47.7021C87.6758 47.637 87.7409 47.5882 87.8223 47.5557C87.8874 47.4417 87.9606 47.3522 88.042 47.2871C88.1234 47.2057 88.2129 47.1243 88.3105 47.043C88.5872 46.7012 88.929 46.4163 89.3359 46.1885C89.7428 45.9606 90.109 45.7002 90.4346 45.4072C90.5485 45.3584 90.6462 45.3014 90.7275 45.2363C90.8089 45.1712 90.8903 45.1061 90.9717 45.041C91.1833 44.862 91.403 44.805 91.6309 44.8701C91.8587 44.9352 92.0703 44.9922 92.2656 45.041C92.4284 45.1875 92.583 45.334 92.7295 45.4805C92.8923 45.627 93.0306 45.7897 93.1445 45.9688C93.2585 45.9525 93.3887 45.9525 93.5352 45.9688C93.6816 45.9688 93.8363 45.9525 93.999 45.9199C94.0479 45.9199 94.0967 45.9118 94.1455 45.8955C94.1943 45.863 94.235 45.8467 94.2676 45.8467C94.5117 45.9281 94.6338 46.0501 94.6338 46.2129L94.6094 46.4082ZM91.4111 46.5791C90.9717 46.7907 90.5729 47.043 90.2148 47.3359C89.8568 47.6126 89.515 47.9137 89.1895 48.2393C89.1081 48.3206 89.0186 48.402 88.9209 48.4834C88.8395 48.5485 88.7663 48.6217 88.7012 48.7031C88.6361 48.7845 88.571 48.8822 88.5059 48.9961C88.457 49.11 88.4082 49.2158 88.3594 49.3135C88.3268 49.3786 88.2943 49.4355 88.2617 49.4844C88.2292 49.5169 88.1966 49.5576 88.1641 49.6064C88.1315 49.6878 88.1152 49.7692 88.1152 49.8506C88.1315 49.932 88.1396 50.0215 88.1396 50.1191C88.1396 50.2005 88.1396 50.2819 88.1396 50.3633C88.1396 50.4447 88.1478 50.526 88.1641 50.6074C88.2129 50.7865 88.2373 50.9655 88.2373 51.1445C88.2373 51.2747 88.2454 51.4375 88.2617 51.6328C88.2943 51.8118 88.3594 51.9339 88.457 51.999C88.5547 52.0641 88.6523 52.0804 88.75 52.0479C88.8639 52.0153 88.9616 51.9909 89.043 51.9746C89.6126 51.5352 90.1497 51.0794 90.6543 50.6074C91.1589 50.1191 91.6064 49.5739 91.9971 48.9717C91.9645 48.5485 91.9564 48.1416 91.9727 47.751C92.0052 47.3441 91.9727 46.9697 91.875 46.6279C91.8099 46.5954 91.7285 46.5872 91.6309 46.6035C91.5495 46.6035 91.4762 46.5954 91.4111 46.5791ZM107.451 47.3848C107.614 47.5801 107.687 47.7184 107.671 47.7998C107.671 47.8812 107.671 47.9707 107.671 48.0684C107.59 48.166 107.524 48.2718 107.476 48.3857C107.427 48.4834 107.354 48.5729 107.256 48.6543C107.174 48.7194 107.085 48.7682 106.987 48.8008C106.906 48.8171 106.833 48.8659 106.768 48.9473C106.67 48.9798 106.589 49.0205 106.523 49.0693C106.458 49.1182 106.361 49.1344 106.23 49.1182C105.84 49.5088 105.49 49.8262 105.181 50.0703C104.888 50.3145 104.578 50.5505 104.253 50.7783C104.009 50.9899 103.748 51.1852 103.472 51.3643C103.211 51.5433 102.943 51.7223 102.666 51.9014C102.585 51.9827 102.511 52.0641 102.446 52.1455C102.381 52.2106 102.3 52.2676 102.202 52.3164C102.007 52.5117 101.803 52.6908 101.592 52.8535C101.396 53 101.209 53.1546 101.03 53.3174C100.851 53.4476 100.656 53.5371 100.444 53.5859C100.249 53.6348 100.062 53.6999 99.8828 53.7812C99.5736 53.9115 99.3376 53.9359 99.1748 53.8545C98.9958 53.887 98.8411 53.9115 98.7109 53.9277C98.597 53.9603 98.4505 53.9521 98.2715 53.9033C98.2227 53.887 98.1738 53.8626 98.125 53.8301C98.0762 53.7975 98.0192 53.765 97.9541 53.7324C97.7913 53.6673 97.6611 53.5941 97.5635 53.5127C97.4821 53.4476 97.4089 53.3825 97.3438 53.3174C97.2949 53.2686 97.238 53.1953 97.1729 53.0977C97.1077 53.0163 97.0589 52.943 97.0264 52.8779C96.945 52.7477 96.8962 52.5931 96.8799 52.4141C96.8473 52.2188 96.8066 52.0316 96.7578 51.8525C96.7253 51.6735 96.6764 51.4945 96.6113 51.3154C96.5462 51.1364 96.5218 50.9492 96.5381 50.7539C96.5544 50.6237 96.5869 50.5016 96.6357 50.3877C96.6683 50.2575 96.7008 50.1273 96.7334 49.9971C96.8311 49.7692 96.9124 49.5576 96.9775 49.3623C97.0426 49.167 97.1159 48.9798 97.1973 48.8008C97.2461 48.7194 97.2949 48.6543 97.3438 48.6055C97.4089 48.5566 97.4658 48.4915 97.5146 48.4102C97.5472 48.3776 97.5635 48.3288 97.5635 48.2637C97.5798 48.1986 97.6042 48.1416 97.6367 48.0928C97.7669 47.9463 97.9053 47.7998 98.0518 47.6533C98.1982 47.4906 98.3285 47.3197 98.4424 47.1406C98.5238 47.0267 98.6051 46.929 98.6865 46.8477C98.7842 46.75 98.8737 46.6442 98.9551 46.5303C99.0527 46.4001 99.1178 46.3268 99.1504 46.3105C99.1992 46.278 99.2399 46.2373 99.2725 46.1885C99.3701 46.0908 99.4596 45.9932 99.541 45.8955C99.6224 45.7816 99.7038 45.6676 99.7852 45.5537C99.8991 45.4398 100.013 45.3177 100.127 45.1875C100.257 45.0573 100.387 44.9515 100.518 44.8701C100.664 44.7887 100.811 44.7155 100.957 44.6504C101.12 44.5853 101.291 44.512 101.47 44.4307C101.551 44.3981 101.624 44.3574 101.689 44.3086C101.771 44.2598 101.852 44.2191 101.934 44.1865C102.031 44.154 102.121 44.1296 102.202 44.1133C102.284 44.097 102.357 44.0563 102.422 43.9912C102.52 44.0075 102.609 43.9912 102.69 43.9424C102.772 43.8936 102.853 43.8529 102.935 43.8203C103.016 43.804 103.089 43.804 103.154 43.8203C103.236 43.8366 103.301 43.8203 103.35 43.7715C103.398 43.804 103.447 43.8203 103.496 43.8203C103.561 43.8203 103.61 43.8366 103.643 43.8691C103.708 43.8854 103.765 43.9261 103.813 43.9912C103.879 44.0563 103.919 44.1296 103.936 44.2109C103.968 44.4551 103.903 44.7074 103.74 44.9678C103.594 45.2282 103.464 45.4235 103.35 45.5537C103.268 45.6839 103.179 45.7979 103.081 45.8955C102.983 45.9769 102.869 46.0583 102.739 46.1396C102.544 46.1396 102.34 46.1559 102.129 46.1885C101.934 46.2048 101.755 46.1966 101.592 46.1641C101.559 46.2292 101.51 46.278 101.445 46.3105C101.396 46.3268 101.388 46.3675 101.421 46.4326C100.868 46.9046 100.379 47.4092 99.9561 47.9463C99.5329 48.4671 99.1992 49.0856 98.9551 49.8018C98.8737 50.0785 98.7923 50.2819 98.7109 50.4121C98.6296 50.526 98.5889 50.6481 98.5889 50.7783C98.6865 51.1201 98.8493 51.4131 99.0771 51.6572C99.305 51.8851 99.5329 52.0153 99.7607 52.0479C100.021 52.0804 100.249 52.0316 100.444 51.9014C100.656 51.7712 100.851 51.6572 101.03 51.5596C101.258 51.3968 101.478 51.2503 101.689 51.1201C101.917 50.9899 102.153 50.8516 102.397 50.7051C102.463 50.6725 102.528 50.64 102.593 50.6074C102.658 50.5586 102.723 50.5098 102.788 50.4609C103 50.3145 103.187 50.1761 103.35 50.0459C103.529 49.8994 103.708 49.7611 103.887 49.6309C103.968 49.6146 104.025 49.5902 104.058 49.5576C104.106 49.5088 104.172 49.4844 104.253 49.4844C104.546 49.224 104.863 48.9961 105.205 48.8008C105.547 48.5892 105.905 48.3776 106.279 48.166C106.393 48.0521 106.507 47.9544 106.621 47.873C106.751 47.7754 106.873 47.6696 106.987 47.5557C107.101 47.5557 107.183 47.5312 107.231 47.4824C107.28 47.4173 107.354 47.3848 107.451 47.3848ZM108.501 47.0918C108.615 47.043 108.737 46.9779 108.867 46.8965C108.997 46.7988 109.111 46.7093 109.209 46.6279C109.404 46.4814 109.583 46.335 109.746 46.1885C109.909 46.042 110.088 45.8955 110.283 45.749C110.397 45.6676 110.495 45.5944 110.576 45.5293C110.674 45.4479 110.763 45.3747 110.845 45.3096C110.926 45.2607 110.999 45.2119 111.064 45.1631C111.146 45.1143 111.227 45.0654 111.309 45.0166C111.536 44.9189 111.732 44.8376 111.895 44.7725C111.943 44.7562 111.992 44.7318 112.041 44.6992C112.106 44.6504 112.171 44.626 112.236 44.626C112.367 44.6097 112.48 44.6423 112.578 44.7236C112.676 44.7887 112.765 44.8376 112.847 44.8701C112.993 44.9515 113.132 45.0247 113.262 45.0898C113.408 45.1549 113.538 45.2445 113.652 45.3584C113.734 45.5049 113.823 45.6432 113.921 45.7734C114.035 45.9036 114.124 46.0664 114.189 46.2617C114.206 46.3105 114.214 46.3757 114.214 46.457C114.214 46.5384 114.214 46.6198 114.214 46.7012C114.23 46.8151 114.255 46.929 114.287 47.043C114.336 47.1569 114.368 47.2708 114.385 47.3848C114.417 47.4987 114.425 47.6208 114.409 47.751C114.409 47.8649 114.368 47.9788 114.287 48.0928C113.815 48.3695 113.319 48.6055 112.798 48.8008C112.668 48.8984 112.529 48.988 112.383 49.0693C112.253 49.1344 112.122 49.2077 111.992 49.2891C111.862 49.4681 111.699 49.6146 111.504 49.7285C111.325 49.8424 111.17 49.9727 111.04 50.1191C111.105 50.3307 111.187 50.5098 111.284 50.6562C111.382 50.8027 111.496 50.9411 111.626 51.0713C111.675 51.1527 111.732 51.2259 111.797 51.291C111.878 51.3398 111.96 51.3805 112.041 51.4131C112.122 51.4456 112.253 51.4782 112.432 51.5107C112.611 51.527 112.741 51.527 112.822 51.5107C112.92 51.4782 113.034 51.4456 113.164 51.4131C113.294 51.3643 113.416 51.3154 113.53 51.2666C113.758 51.2503 113.921 51.1771 114.019 51.0469C114.132 50.9004 114.255 50.7783 114.385 50.6807C114.466 50.6156 114.548 50.5667 114.629 50.5342C114.71 50.4854 114.792 50.4121 114.873 50.3145C114.922 50.1842 114.995 50.0785 115.093 49.9971C115.304 49.7855 115.5 49.639 115.679 49.5576C115.793 49.3949 115.939 49.2972 116.118 49.2646C116.297 49.2321 116.452 49.167 116.582 49.0693L116.924 48.8252C117.038 48.7438 117.144 48.6624 117.241 48.5811C117.339 48.4997 117.445 48.4183 117.559 48.3369C117.656 48.2718 117.746 48.223 117.827 48.1904C117.925 48.1416 117.998 48.0765 118.047 47.9951C118.112 47.9626 118.169 47.9382 118.218 47.9219C118.267 47.9056 118.315 47.8893 118.364 47.873C118.446 47.987 118.494 48.0684 118.511 48.1172C118.543 48.1497 118.56 48.1904 118.56 48.2393C118.543 48.3206 118.511 48.3776 118.462 48.4102C118.413 48.4264 118.381 48.4753 118.364 48.5566C118.185 48.6706 117.998 48.7926 117.803 48.9229C117.624 49.0368 117.453 49.167 117.29 49.3135C117.274 49.3949 117.249 49.46 117.217 49.5088C117.201 49.5413 117.176 49.5902 117.144 49.6553C116.916 49.818 116.704 49.9971 116.509 50.1924C116.313 50.3877 116.102 50.5749 115.874 50.7539C115.793 50.8027 115.711 50.8597 115.63 50.9248C115.565 50.9899 115.483 51.0469 115.386 51.0957C115.142 51.3236 114.897 51.5514 114.653 51.7793C114.409 51.9909 114.149 52.1862 113.872 52.3652C113.791 52.4141 113.709 52.471 113.628 52.5361C113.547 52.585 113.449 52.6257 113.335 52.6582C113.237 52.7396 113.132 52.7884 113.018 52.8047C112.92 52.821 112.822 52.8535 112.725 52.9023C112.529 52.9837 112.358 53.0651 112.212 53.1465C112.082 53.2441 111.919 53.3092 111.724 53.3418C111.626 53.3743 111.528 53.3743 111.431 53.3418C111.349 53.3092 111.243 53.3011 111.113 53.3174C110.999 53.2523 110.885 53.2116 110.771 53.1953C110.755 53.1465 110.69 53.0488 110.576 52.9023C110.479 52.7396 110.413 52.6419 110.381 52.6094C110.316 52.3978 110.251 52.2513 110.186 52.1699C110.12 52.0723 110.055 51.9746 109.99 51.877C109.909 51.7467 109.852 51.6084 109.819 51.4619C109.803 51.2992 109.754 51.1527 109.673 51.0225C109.689 50.9411 109.673 50.8841 109.624 50.8516C109.591 50.8027 109.583 50.7458 109.6 50.6807C109.404 50.5342 109.282 50.4365 109.233 50.3877C109.201 50.3226 109.168 50.2575 109.136 50.1924C109.136 50.0133 109.136 49.9076 109.136 49.875C109.136 49.8424 109.152 49.8099 109.185 49.7773C109.282 49.6797 109.388 49.5983 109.502 49.5332C109.632 49.4518 109.738 49.3623 109.819 49.2646C109.901 49.2484 109.966 49.2158 110.015 49.167C110.08 49.1182 110.145 49.0693 110.21 49.0205C110.405 48.8903 110.592 48.7682 110.771 48.6543C110.951 48.5241 111.154 48.3939 111.382 48.2637C111.545 48.1823 111.642 48.0439 111.675 47.8486C111.724 47.6533 111.764 47.4661 111.797 47.2871C111.699 47.1243 111.626 47.043 111.577 47.043C111.545 47.043 111.512 47.0267 111.479 46.9941C111.431 46.9616 111.39 46.9209 111.357 46.8721C111.325 46.807 111.276 46.7744 111.211 46.7744C111.162 46.7907 111.097 46.8232 111.016 46.8721C110.934 46.9209 110.869 46.9616 110.82 46.9941C110.544 47.1569 110.267 47.3034 109.99 47.4336C109.714 47.5475 109.445 47.6859 109.185 47.8486C109.054 47.9137 108.916 47.9788 108.77 48.0439C108.639 48.109 108.534 48.166 108.452 48.2148C108.42 48.2311 108.379 48.2637 108.33 48.3125C108.298 48.3451 108.265 48.3776 108.232 48.4102C108.102 48.6868 107.996 48.8903 107.915 49.0205C107.85 49.1344 107.785 49.2646 107.72 49.4111C107.703 49.46 107.679 49.5088 107.646 49.5576C107.63 49.5902 107.606 49.6227 107.573 49.6553C107.492 49.7855 107.427 49.9157 107.378 50.0459C107.329 50.1761 107.256 50.2982 107.158 50.4121C107.126 50.6074 107.061 50.819 106.963 51.0469C106.882 51.2585 106.808 51.4701 106.743 51.6816C106.694 51.877 106.629 52.056 106.548 52.2188C106.483 52.3815 106.353 52.4873 106.157 52.5361C106.076 52.6663 106.027 52.764 106.011 52.8291C106.011 52.8942 105.97 52.9919 105.889 53.1221C105.824 53.1546 105.758 53.1709 105.693 53.1709C105.645 53.1872 105.579 53.2197 105.498 53.2686C105.482 53.2686 105.441 53.293 105.376 53.3418C105.311 53.3906 105.246 53.4395 105.181 53.4883C105.099 53.5371 105.026 53.5859 104.961 53.6348C104.896 53.6836 104.855 53.708 104.839 53.708C104.709 53.7406 104.627 53.7324 104.595 53.6836C104.546 53.651 104.489 53.651 104.424 53.6836C104.326 53.4883 104.245 53.3662 104.18 53.3174C104.212 53.1872 104.245 53.0732 104.277 52.9756C104.294 52.8617 104.334 52.764 104.399 52.6826C104.448 52.6175 104.505 52.5443 104.57 52.4629C104.635 52.3652 104.692 52.2757 104.741 52.1943C104.774 52.1292 104.79 52.0723 104.79 52.0234C104.774 51.9583 104.782 51.8932 104.814 51.8281C104.847 51.7467 104.896 51.6654 104.961 51.584C105.01 51.4863 105.059 51.3968 105.107 51.3154C105.173 51.1527 105.246 50.998 105.327 50.8516C105.392 50.7051 105.457 50.5423 105.522 50.3633C105.571 50.1842 105.612 50.0133 105.645 49.8506C105.677 49.6715 105.734 49.4925 105.815 49.3135C105.897 49.1344 105.978 48.9473 106.06 48.752C106.141 48.5404 106.198 48.3451 106.23 48.166C106.247 48.0846 106.271 48.0195 106.304 47.9707C106.336 47.9219 106.369 47.8568 106.401 47.7754C106.434 47.694 106.466 47.6045 106.499 47.5068C106.548 47.3929 106.597 47.2871 106.646 47.1895C106.727 47.0918 106.768 47.0186 106.768 46.9697C106.784 46.9209 106.808 46.8802 106.841 46.8477C106.873 46.7988 106.89 46.7581 106.89 46.7256C106.906 46.6768 106.93 46.6361 106.963 46.6035C106.995 46.5221 107.036 46.4408 107.085 46.3594C107.134 46.278 107.174 46.1966 107.207 46.1152C107.256 46.0501 107.297 45.9443 107.329 45.7979C107.362 45.7653 107.386 45.7246 107.402 45.6758C107.435 45.627 107.451 45.5863 107.451 45.5537C107.5 45.3747 107.533 45.2038 107.549 45.041C107.581 44.8783 107.646 44.7074 107.744 44.5283C107.809 44.3005 107.85 44.1377 107.866 44.04C107.899 43.9261 107.972 43.7878 108.086 43.625C108.135 43.4948 108.192 43.3646 108.257 43.2344C108.322 43.0879 108.379 42.9495 108.428 42.8193C108.477 42.6891 108.525 42.5671 108.574 42.4531C108.623 42.3229 108.664 42.1846 108.696 42.0381C108.81 41.8102 108.9 41.6312 108.965 41.501C109.03 41.3545 109.103 41.208 109.185 41.0615C109.315 40.8011 109.404 40.6058 109.453 40.4756C109.518 40.3291 109.591 40.1989 109.673 40.085C109.722 39.9548 109.754 39.8408 109.771 39.7432C109.803 39.6292 109.844 39.5234 109.893 39.4258C110.039 39.2305 110.129 39.0758 110.161 38.9619C110.194 38.848 110.234 38.7422 110.283 38.6445C110.446 38.2702 110.633 37.8877 110.845 37.4971C111.056 37.1064 111.309 36.7646 111.602 36.4717C111.683 36.3903 111.764 36.3089 111.846 36.2275C111.943 36.1462 112.025 36.0485 112.09 35.9346C112.22 35.8044 112.35 35.6986 112.48 35.6172C112.611 35.5195 112.733 35.4137 112.847 35.2998C113.058 35.3486 113.18 35.3893 113.213 35.4219C113.262 35.4382 113.302 35.4463 113.335 35.4463C113.416 35.5602 113.473 35.723 113.506 35.9346C113.555 36.1299 113.571 36.3171 113.555 36.4961C113.555 36.61 113.53 36.724 113.481 36.8379C113.433 36.9518 113.408 37.0658 113.408 37.1797C113.392 37.2448 113.384 37.3018 113.384 37.3506C113.4 37.3994 113.384 37.4401 113.335 37.4727C113.302 37.6517 113.254 37.8226 113.188 37.9854C113.123 38.1318 113.058 38.2783 112.993 38.4248C112.749 39.0107 112.489 39.5072 112.212 39.9141C111.951 40.321 111.699 40.7767 111.455 41.2812C111.341 41.4603 111.235 41.6393 111.138 41.8184C111.056 41.9811 110.975 42.1764 110.894 42.4043C110.796 42.5996 110.69 42.7949 110.576 42.9902C110.462 43.1855 110.324 43.3646 110.161 43.5273C110.063 43.7064 109.974 43.8854 109.893 44.0645C109.827 44.2272 109.73 44.39 109.6 44.5527C109.567 44.6667 109.526 44.7725 109.478 44.8701C109.429 44.9515 109.364 45.041 109.282 45.1387C109.217 45.2689 109.152 45.3828 109.087 45.4805C109.038 45.5781 108.997 45.7002 108.965 45.8467C108.883 46.0583 108.794 46.278 108.696 46.5059C108.615 46.7174 108.55 46.9128 108.501 47.0918ZM120.83 46.042C120.716 46.1885 120.602 46.3268 120.488 46.457C120.374 46.5872 120.244 46.7093 120.098 46.8232C120 47.0023 119.886 47.165 119.756 47.3115C119.626 47.458 119.495 47.5964 119.365 47.7266C119.3 47.8568 119.227 47.9626 119.146 48.0439C119.064 48.109 118.975 48.1823 118.877 48.2637C118.828 48.3451 118.763 48.4264 118.682 48.5078C118.617 48.5892 118.551 48.6706 118.486 48.752C118.438 48.8333 118.397 48.9229 118.364 49.0205C118.332 49.1182 118.34 49.224 118.389 49.3379C118.568 49.3704 118.747 49.346 118.926 49.2646C119.105 49.1833 119.259 49.11 119.39 49.0449C119.52 48.9635 119.65 48.8984 119.78 48.8496C119.927 48.7845 120.057 48.7113 120.171 48.6299L120.806 47.9951C120.92 47.8975 121.017 47.7917 121.099 47.6777C121.18 47.5638 121.27 47.4417 121.367 47.3115C121.4 47.1488 121.465 46.986 121.562 46.8232C121.66 46.6442 121.701 46.4733 121.685 46.3105C121.668 46.2129 121.636 46.1315 121.587 46.0664C121.554 45.985 121.53 45.9036 121.514 45.8223C121.351 45.8223 121.221 45.8548 121.123 45.9199C121.042 45.9688 120.944 46.0094 120.83 46.042ZM116.899 47.6045C116.932 47.5882 116.997 47.5231 117.095 47.4092C117.209 47.279 117.331 47.1406 117.461 46.9941C117.591 46.8314 117.713 46.693 117.827 46.5791C117.941 46.4489 118.022 46.3757 118.071 46.3594C118.12 46.278 118.161 46.2129 118.193 46.1641C118.242 46.099 118.307 46.042 118.389 45.9932C118.519 45.749 118.69 45.5537 118.901 45.4072C119.113 45.2445 119.316 45.0573 119.512 44.8457C119.821 44.7155 120.13 44.5527 120.439 44.3574C120.765 44.1458 121.123 44.0319 121.514 44.0156C121.693 44.097 121.864 44.1214 122.026 44.0889C122.205 44.0563 122.368 44.097 122.515 44.2109C122.596 44.3574 122.669 44.4551 122.734 44.5039C122.799 44.5365 122.848 44.5771 122.881 44.626C122.946 44.8376 122.995 44.9759 123.027 45.041C123.06 45.0898 123.084 45.1549 123.101 45.2363C123.117 45.4805 123.133 45.6595 123.149 45.7734C123.166 45.8711 123.166 45.9688 123.149 46.0664C123.101 46.5059 123.019 46.9209 122.905 47.3115C122.873 47.4092 122.84 47.515 122.808 47.6289C122.775 47.7266 122.734 47.8161 122.686 47.8975C122.572 48.0439 122.482 48.1742 122.417 48.2881C122.368 48.3857 122.319 48.4671 122.271 48.5322C122.075 48.7275 121.904 48.8903 121.758 49.0205C121.611 49.1019 121.465 49.1914 121.318 49.2891C121.172 49.3867 121.009 49.4518 120.83 49.4844C120.749 49.5332 120.675 49.582 120.61 49.6309C120.545 49.6634 120.464 49.6878 120.366 49.7041C120.203 49.818 120.041 49.9076 119.878 49.9727C119.715 50.0215 119.544 50.0866 119.365 50.168C119.268 50.2005 119.162 50.2575 119.048 50.3389C118.934 50.4202 118.82 50.4854 118.706 50.5342C118.608 50.5667 118.486 50.5993 118.34 50.6318C118.21 50.6481 118.104 50.6725 118.022 50.7051C118.104 50.8841 118.136 51.0876 118.12 51.3154C118.104 51.5433 118.145 51.7467 118.242 51.9258C118.454 51.9746 118.682 52.0153 118.926 52.0479C119.186 52.0641 119.43 52.056 119.658 52.0234C119.74 52.0072 119.829 51.9827 119.927 51.9502C120.024 51.9014 120.122 51.8688 120.22 51.8525C120.399 51.82 120.57 51.7793 120.732 51.7305C120.911 51.6816 121.066 51.6165 121.196 51.5352C121.668 51.3724 122.124 51.1527 122.563 50.876C123.003 50.5993 123.385 50.2982 123.711 49.9727C123.906 49.8424 124.118 49.6634 124.346 49.4355C124.59 49.2077 124.777 48.9961 124.907 48.8008C125.151 48.5404 125.363 48.3369 125.542 48.1904C125.737 48.0439 125.916 47.9788 126.079 47.9951C126.209 47.9951 126.331 48.0765 126.445 48.2393C126.576 48.3857 126.567 48.5485 126.421 48.7275C126.258 48.8252 126.087 48.9717 125.908 49.167C125.729 49.3623 125.542 49.5007 125.347 49.582C125.2 49.6797 125.013 49.8587 124.785 50.1191C124.574 50.3796 124.395 50.5749 124.248 50.7051C124.183 50.7702 124.093 50.8516 123.979 50.9492C123.882 51.0306 123.8 51.112 123.735 51.1934C123.507 51.3887 123.263 51.5677 123.003 51.7305C122.905 51.6979 122.832 51.7142 122.783 51.7793C122.734 51.8444 122.669 51.9095 122.588 51.9746C122.539 52.0072 122.482 52.0397 122.417 52.0723C122.368 52.1048 122.319 52.1374 122.271 52.1699C122.14 52.2839 121.994 52.3978 121.831 52.5117C121.685 52.6257 121.53 52.7233 121.367 52.8047C121.042 53 120.716 53.1628 120.391 53.293C120.065 53.4395 119.748 53.6185 119.438 53.8301C119.341 53.8464 119.251 53.8545 119.17 53.8545C119.089 53.8708 119.007 53.887 118.926 53.9033C118.828 53.9359 118.739 53.9521 118.657 53.9521C118.592 53.9521 118.494 53.9359 118.364 53.9033C118.071 53.8219 117.827 53.7243 117.632 53.6104C117.437 53.4964 117.241 53.3337 117.046 53.1221C116.948 53.0244 116.842 52.9349 116.729 52.8535C116.615 52.7721 116.525 52.6826 116.46 52.585C116.411 52.5036 116.354 52.3734 116.289 52.1943C116.224 52.0153 116.167 51.8281 116.118 51.6328C116.069 51.4212 116.029 51.2178 115.996 51.0225C115.964 50.8271 115.947 50.6807 115.947 50.583C115.98 50.5179 116.021 50.404 116.069 50.2412C116.102 50.0785 116.143 49.9076 116.191 49.7285C116.224 49.5332 116.257 49.3542 116.289 49.1914C116.305 49.0286 116.313 48.9147 116.313 48.8496C116.33 48.8333 116.37 48.7682 116.436 48.6543C116.501 48.5241 116.574 48.3857 116.655 48.2393C116.72 48.0928 116.777 47.9626 116.826 47.8486C116.875 47.7184 116.899 47.637 116.899 47.6045ZM131.89 51.0713C131.955 50.9899 132.004 50.9329 132.036 50.9004C132.069 50.8516 132.118 50.8109 132.183 50.7783C132.297 50.5342 132.419 50.3389 132.549 50.1924C132.695 50.0296 132.842 49.8831 132.988 49.7529C133.135 49.6064 133.289 49.4762 133.452 49.3623C133.631 49.2321 133.826 49.0775 134.038 48.8984C134.119 48.8984 134.185 48.874 134.233 48.8252C134.299 48.7601 134.372 48.7113 134.453 48.6787C134.567 48.5811 134.657 48.5078 134.722 48.459C134.803 48.4102 134.868 48.3451 134.917 48.2637C135.112 48.166 135.283 48.0439 135.43 47.8975C135.592 47.751 135.763 47.6126 135.942 47.4824C136.089 47.4499 136.227 47.4661 136.357 47.5312C136.423 47.6615 136.447 47.7998 136.431 47.9463C136.414 48.0928 136.333 48.1742 136.187 48.1904C136.138 48.2393 136.081 48.2881 136.016 48.3369C135.967 48.3857 135.902 48.4183 135.82 48.4346C135.723 48.4508 135.649 48.4753 135.601 48.5078C135.568 48.5241 135.535 48.5648 135.503 48.6299C135.487 48.7926 135.462 48.8903 135.43 48.9229C135.413 48.9391 135.397 48.9635 135.381 48.9961C135.283 49.1589 135.177 49.3053 135.063 49.4355C134.966 49.5495 134.868 49.6634 134.771 49.7773C134.673 49.875 134.575 49.9889 134.478 50.1191C134.38 50.2331 134.274 50.3796 134.16 50.5586C134.062 50.6237 133.989 50.7132 133.94 50.8271C133.647 50.9899 133.428 51.1201 133.281 51.2178C133.151 51.2992 133.029 51.4049 132.915 51.5352C132.817 51.6003 132.769 51.6491 132.769 51.6816C132.769 51.7142 132.752 51.7467 132.72 51.7793C132.557 51.9095 132.459 52.0153 132.427 52.0967C132.41 52.1618 132.378 52.2106 132.329 52.2432C132.166 52.3571 132.044 52.4629 131.963 52.5605C131.882 52.6419 131.776 52.707 131.646 52.7559C131.548 52.8372 131.41 52.9349 131.23 53.0488C131.051 53.1628 130.856 53.2686 130.645 53.3662C130.433 53.4639 130.221 53.529 130.01 53.5615C129.814 53.6104 129.644 53.6022 129.497 53.5371C129.432 53.4883 129.375 53.4395 129.326 53.3906C129.277 53.3581 129.22 53.3255 129.155 53.293C129.041 53.1628 128.919 53.057 128.789 52.9756C128.675 52.8779 128.569 52.7559 128.472 52.6094C128.358 52.4466 128.276 52.2757 128.228 52.0967C128.195 51.9014 128.138 51.7142 128.057 51.5352C128.04 51.3398 128.04 51.1527 128.057 50.9736C128.073 50.7783 128.105 50.6156 128.154 50.4854C128.333 49.932 128.545 49.4518 128.789 49.0449C129.049 48.638 129.229 48.1742 129.326 47.6533C129.147 47.4743 129.041 47.3115 129.009 47.165C128.993 47.0023 128.952 46.7826 128.887 46.5059C128.464 46.7826 128.073 47.1325 127.715 47.5557C127.357 47.9788 127.039 48.4102 126.763 48.8496C126.649 49.0449 126.551 49.224 126.47 49.3867C126.388 49.5495 126.291 49.696 126.177 49.8262C126.095 49.9076 126.055 49.9645 126.055 49.9971C126.055 50.0133 126.038 50.0378 126.006 50.0703C125.876 50.2331 125.794 50.347 125.762 50.4121C125.729 50.4772 125.697 50.5342 125.664 50.583C125.632 50.6318 125.591 50.6807 125.542 50.7295C125.493 50.7783 125.452 50.8271 125.42 50.876C125.192 51.2015 124.98 51.5107 124.785 51.8037C124.606 52.0804 124.419 52.3652 124.224 52.6582C124.142 52.7884 124.069 52.9268 124.004 53.0732C123.939 53.2197 123.857 53.3499 123.76 53.4639C123.597 53.4801 123.507 53.4557 123.491 53.3906C123.459 53.3255 123.459 53.2686 123.491 53.2197C123.394 53.1546 123.32 53.057 123.271 52.9268C123.206 52.7803 123.174 52.6257 123.174 52.4629C123.158 52.3001 123.158 52.1374 123.174 51.9746C123.19 51.8118 123.223 51.6735 123.271 51.5596C123.223 51.4131 123.206 51.3317 123.223 51.3154C123.239 51.2992 123.247 51.2747 123.247 51.2422C123.459 50.9492 123.678 50.6562 123.906 50.3633C124.118 50.0703 124.346 49.7936 124.59 49.5332C124.671 49.4193 124.744 49.3053 124.81 49.1914C124.891 49.0775 124.98 48.9717 125.078 48.874C125.225 48.6136 125.387 48.3695 125.566 48.1416C125.762 47.9137 125.924 47.6615 126.055 47.3848C126.136 47.3034 126.193 47.2139 126.226 47.1162C126.274 47.0186 126.348 46.9372 126.445 46.8721C126.559 46.6768 126.649 46.4896 126.714 46.3105C126.779 46.1315 126.868 45.9769 126.982 45.8467C127.015 45.7327 127.056 45.6432 127.104 45.5781C127.153 45.513 127.218 45.4398 127.3 45.3584C127.316 45.277 127.357 45.2119 127.422 45.1631C127.503 45.098 127.568 45.0247 127.617 44.9434C127.65 44.8294 127.69 44.7562 127.739 44.7236C127.788 44.6911 127.812 44.6341 127.812 44.5527C127.894 44.4714 127.975 44.39 128.057 44.3086C128.138 44.2109 128.211 44.097 128.276 43.9668C128.504 43.8366 128.659 43.7715 128.74 43.7715C128.838 43.7715 128.911 43.7308 128.96 43.6494C129.09 43.6494 129.245 43.6494 129.424 43.6494C129.603 43.6331 129.701 43.6901 129.717 43.8203C129.733 43.8529 129.733 43.8936 129.717 43.9424C129.701 43.9912 129.684 44.04 129.668 44.0889C129.684 44.2354 129.684 44.3167 129.668 44.333C129.652 44.333 129.644 44.3411 129.644 44.3574C129.627 44.4062 129.619 44.4632 129.619 44.5283C129.635 44.5934 129.644 44.6667 129.644 44.748C129.627 44.8783 129.611 44.984 129.595 45.0654C129.578 45.1305 129.611 45.2201 129.692 45.334C129.725 45.3828 129.774 45.4316 129.839 45.4805C129.904 45.513 129.961 45.5618 130.01 45.627C130.059 45.6758 130.083 45.7246 130.083 45.7734C130.099 45.8223 130.132 45.8711 130.181 45.9199C130.213 45.9688 130.262 46.0094 130.327 46.042C130.392 46.0745 130.441 46.1315 130.474 46.2129C130.555 46.278 130.579 46.3187 130.547 46.335C130.531 46.3512 130.571 46.3838 130.669 46.4326C130.864 46.6768 131.003 46.929 131.084 47.1895C131.182 47.3848 131.271 47.5475 131.353 47.6777C131.434 47.8079 131.434 47.9382 131.353 48.0684C131.32 48.1009 131.287 48.1416 131.255 48.1904C131.239 48.2393 131.214 48.2962 131.182 48.3613C131.117 48.4264 131.051 48.5078 130.986 48.6055C130.954 48.6706 130.929 48.7357 130.913 48.8008C130.897 48.8496 130.872 48.8984 130.84 48.9473C130.693 49.1751 130.539 49.3867 130.376 49.582C130.229 49.7773 130.099 49.9808 129.985 50.1924C130.002 50.6644 130.091 51.0062 130.254 51.2178C130.449 51.4456 130.571 51.5596 130.62 51.5596C130.718 51.5758 130.832 51.5433 130.962 51.4619C131.092 51.3805 131.198 51.3154 131.279 51.2666C131.344 51.234 131.401 51.2015 131.45 51.1689C131.499 51.1364 131.556 51.112 131.621 51.0957C131.8 51.0306 131.882 51.0143 131.865 51.0469C131.849 51.0632 131.857 51.0713 131.89 51.0713Z" fill="#45413D"/>
</svg>
